<svg xmlns="http://www.w3.org/2000/svg" viewBox="0 0 512 512"><style type="text/css">  
	.st0{fill:#FFFFFF;}
	.st1{fill:#C60C30;}
	.st2{fill:#003478;}
	.st3{fill:#FF9933;}
	.st4{fill:#128807;}
	.st5{fill:#000088;}
	.st6{fill:#032774;}
	.st7{fill:#DF0333;}
	.st8{fill:#EE2B2C;}
	.st9{fill:#032767;}
	.st10{fill:#006747;}
	.st11{fill:#CD1225;}
	.st12{fill:#FBC942;}
	.st13{fill:#BD9B37;}
	.st14{fill:#9BA068;}
	.st15{fill:#707633;}
	.st16{fill:#006748;}
	.st17{fill:#CC2029;}
	.st18{fill:#30C1DB;}
	.st19{fill:#F7C740;}
	.st20{fill:#0C72A6;}
	.st21{fill:#F8A952;}
	.st22{fill:#943120;}
	.st23{fill:#231F20;}
	.st24{fill:#0B8388;}
	.st25{fill:#8BBDBE;}
	.st26{fill:#05534E;}
	.st27{fill:none;stroke:#39B54A;stroke-width:0.25;stroke-miterlimit:10;}
	.st28{fill:none;stroke:#00A651;stroke-miterlimit:10;}
	.st29{fill:none;stroke:#00A651;stroke-width:0.5;stroke-miterlimit:10;}
	.st30{fill:url(#SVGID_1_);}
	.st31{fill:url(#SVGID_2_);}
	.st32{fill:url(#SVGID_3_);}
	.st33{fill:url(#SVGID_4_);}
	.st34{fill:url(#SVGID_5_);}
	.st35{fill:url(#SVGID_6_);}
	.st36{fill:url(#SVGID_7_);}
	.st37{fill:url(#SVGID_8_);}
	.st38{fill:url(#SVGID_9_);}
	.st39{fill:url(#SVGID_10_);}
	.st40{fill:url(#SVGID_11_);}
	.st41{fill:url(#SVGID_12_);}
	.st42{fill:url(#SVGID_13_);}
	.st43{fill:url(#SVGID_14_);}
	.st44{fill:url(#SVGID_15_);}
	.st45{fill:#F8C73E;}
	.st46{fill:#77722F;}
	.st47{fill:#A7AB71;}
	.st48{fill:#949457;}
	.st49{fill:#AE6F2A;}
	.st50{fill:#FFF200;}
	.st51{fill:#C5C6A6;}
	.st52{fill:#A3A395;}
	.st53{fill:#4C2915;}
	.st54{fill:#8E4520;}
	.st55{fill:#D1A467;}
	.st56{fill:#AA6C2A;}
	.st57{fill:#DAAC6D;}
	.st58{fill:#8F4620;}
	.st59{fill:#BC7E2F;}
	.st60{fill:#E6E7E8;}
	.st61{fill:#F06D19;}
	.st62{fill:#19B43D;}
	.st63{fill:#07A3DC;}
	.st64{fill:#FBD023;}
	.st65{fill:#EC2938;}
	.st66{fill:#F9DF47;}
	.st67{fill:#0967C4;}
	.st68{fill:#C5A310;}
	.st69{clip-path:url(#SVGID_17_);}
	.st70{fill:#6FD7F2;}
	.st71{clip-path:url(#SVGID_19_);}
	.st72{fill:#FF0303;}
	.st73{fill:#FF6407;}
	.st74{fill:#FDFE1F;}
	.st75{fill:#00FE1E;}
	.st76{fill:#08CCFE;}
	.st77{fill:#120FFD;}
	.st78{fill:#810480;}
	.st79{fill:#0642A1;}
	.st80{fill:#02275F;}
	.st81{fill:#80A0D1;}
	.st82{fill:#FB3B3A;}
	.st83{fill:#FF0302;}
	.st84{fill:#520200;}
	.st85{fill:#940101;}
	.st86{clip-path:url(#SVGID_21_);}
	.st87{fill:#91BB35;}
	.st88{fill:#ECE62B;}
	.st89{fill:#C5CA2C;}
	.st90{fill:#95C82B;}
	.st91{fill:#009D4A;}
	.st92{fill:#BF0A30;}
	.st93{fill:#002868;}
	.st94{fill:#028832;}
	.st95{fill:#FBDC1D;}
	.st96{fill:#D91219;}
	.st97{fill:#0738A6;}
	.st98{fill:#FD0302;}
	.st99{fill:#060593;}
	.st100{fill:#115EAD;}
	.st101{fill:#C50C1E;}
	.st102{fill:#FEC315;}
	.st103{fill:#C7B011;}
	.st104{fill:#AC1518;}
	.st105{fill:#028E6E;}
	.st106{fill:#CBCBCB;}
	.st107{fill:#095BBD;}
	.st108{fill:#C7B013;}
	.st109{fill:#00AEEF;}
	.st110{fill:#C7B112;}
	.st111{fill:#FED592;}
	.st112{fill:#028D6E;}
	.st113{fill:#C7B012;}
	.st114{fill:#C6B011;}
	.st115{fill:#103BEE;}
	.st116{fill:#DB4445;}
	.st117{fill:#EC72A9;}
	.st118{fill:#006133;}
	.st119{fill:#D11133;}
	.st120{fill:#042B7D;}
	.st121{fill:#FEC527;}
	.st122{fill:#BF920D;}
</style><path class="st0" d="M512 256c0 29.9-5.2 58.6-14.6 85.4C462.1 440.7 367.3 512 256 512S49.9 440.7 14.6 341.4C5.2 314.6 0 285.9 0 256c0-29.9 5.2-58.6 14.6-85.4C49.9 71.3 144.7 0 256 0s206.1 71.3 241.4 170.6C506.8 197.4 512 226.1 512 256z"/><path class="st3" d="M497.4 170.6H14.6C49.9 71.3 144.7 0 256 0S462.1 71.3 497.4 170.6z"/><path class="st4" d="M497.4 341.4C462.1 440.7 367.3 512 256 512S49.9 440.7 14.6 341.4H497.4z"/><path class="st5" d="M265.1 263.7l0.2-0.1 0.1-0.1 0.2-0.2c0.1-0.1 0.1-0.2 0.1-0.2l0.2-0.2 0.1-0.1c0 0 0.1-0.1 0.2-0.2l0.1-0.1 9.3 7.1 32.3 16.3 -30.2-19.9 -10.7-4.5 0.1-0.1 0.1-0.2c0 0 0.1-0.1 0.1-0.2l0.1-0.2c0 0 0.1-0.1 0.1-0.2 0 0 0.1-0.2 0.1-0.2l0.1-0.2 0.1-0.2 0.1-0.2c0-0.1 0-0.1 0-0.1l10.8 4.4 35.4 7.4 -34.3-11.4 -11.5-1.6 0.1-0.1v-0.2c0-0.1 0.1-0.1 0.1-0.1v-0.2l0.1-0.2c0-0.1 0-0.1 0-0.1l0.1-0.2V257c0-0.1 0-0.2 0-0.2v-0.2l11.6 1.4 36.1-2.1 -36.1-2.1 -11.6 1.4v-0.1c0-0.1 0-0.2 0-0.2v-0.2l-0.1-0.2c0-0.1 0-0.1 0-0.1l-0.1-0.3v-0.1c0-0.1-0.1-0.2-0.1-0.2v-0.2l-0.1-0.2 11.5-1.6 34.3-11.3 -35.4 7.4 -10.8 4.4v-0.1l-0.1-0.2 -0.1-0.2c0-0.1 0-0.1 0-0.1l-0.1-0.2c-0.1-0.1-0.1-0.2-0.1-0.2 -0.1-0.1-0.1-0.2-0.1-0.2l-0.1-0.2 -0.1-0.2c0 0-0.1-0.1-0.1-0.1l10.7-4.5 30.2-19.8 -32.3 16.3 -9.3 7c0-0.1-0.1-0.1-0.1-0.1l-0.2-0.2 -0.1-0.2 -0.1-0.1c-0.1-0.1-0.1-0.1-0.1-0.1l-0.2-0.2 -0.1-0.1c0 0-0.1-0.1-0.2-0.2l-0.1-0.2 -0.1-0.1 9.2-7.1 24.1-27L271.2 238l-7.2 9.2 -0.1-0.1 -0.2-0.1 -0.1-0.1c-0.1-0.1-0.1-0.1-0.1-0.1l-0.2-0.2 -0.2-0.2c0 0-0.1-0.1-0.1-0.1l-0.2-0.1 -0.2-0.1c0 0-0.1-0.1-0.1-0.1l7-9.3 16.3-32.3 -19.9 30.2 -4.5 10.7 -0.1-0.1c-0.1 0-0.1-0.1-0.1-0.1l-0.2-0.1 -0.2-0.1 -0.2-0.1 -0.2-0.1 -0.2-0.1 -0.2-0.1 -0.2-0.1 -0.2-0.1 4.4-10.8 7.4-35.4 -11.3 34.3 -1.6 11.5h-0.1c-0.1-0.1-0.2-0.1-0.2-0.1l-0.2-0.1c0 0-0.1 0-0.2 0l-0.2-0.1h-0.2 -0.1l-0.2-0.1h-0.2c0 0-0.1 0-0.2 0l1.4-11.5 -2.1-36.1 -2.1 36.1 1.4 11.5h-0.1H255l-0.2 0.1h-0.2 -0.2l-0.2 0.1h-0.2l-0.2 0.1c0 0-0.1 0-0.2 0.1h-0.1l-1.6-11.5 -11.3-34.3 7.4 35.4 4.4 10.8 -0.2 0.1 -0.2 0.1 -0.2 0.1 -0.2 0.1c0 0-0.1 0.1-0.2 0.1l-0.2 0.1 -0.2 0.1 -0.1 0.1c-0.1 0.1-0.2 0.1-0.2 0.1l-0.2 0.1 -4.5-10.7 -19.8-30.2 16.3 32.3 7 9.3c-0.1 0.1-0.1 0.1-0.1 0.1l-0.2 0.2c-0.1 0-0.1 0.1-0.1 0.1l-0.2 0.1 -0.2 0.2 -0.2 0.1 -0.1 0.1 -0.1 0.1 -0.2 0.1c0 0-0.1 0.1-0.1 0.1l-7.2-9.2 -26.9-24.1 24.1 27 9.2 7.1 -0.1 0.1 -0.1 0.2c-0.1 0.1-0.1 0.1-0.1 0.1l-0.1 0.2 -0.2 0.2c0 0-0.1 0.1-0.1 0.2 0 0-0.1 0.1-0.1 0.1l-0.1 0.2 -0.2 0.2c0 0-0.1 0.1-0.1 0.1l-9.3-7 -32.3-16.3 30.2 19.8 10.7 4.5c0 0.1-0.1 0.1-0.1 0.1l-0.1 0.2 -0.1 0.2c0 0-0.1 0.1-0.1 0.1l-0.1 0.2 -0.1 0.2c0 0-0.1 0.1-0.1 0.1l-0.1 0.2 -0.1 0.2v0.1l-10.8-4.4 -35.4-7.4 34.4 11.3 11.5 1.6 -0.1 0.2v0.2c0 0-0.1 0.2-0.1 0.2v0.1l-0.1 0.2c0 0 0 0.2 0 0.2l-0.1 0.2v0.2c0 0 0 0.1 0 0.2v0.1l-11.6-1.4 -36.1 2.1 36.1 2.1 11.6-1.4v0.2c0 0 0 0.1 0 0.2v0.2l0.1 0.1c0 0 0 0.2 0 0.2l0.1 0.2v0.2c0 0 0.1 0.1 0.1 0.2v0.2l0.1 0.1 -11.5 1.6 -34.4 11.4 35.4-7.4 10.8-4.4c0 0 0 0.1 0 0.2l0.1 0.2 0.1 0.2 0.1 0.2c0 0.1 0.1 0.1 0.1 0.1l0.1 0.3 0.1 0.2c0 0.1 0.1 0.1 0.1 0.1l0.1 0.2 0.1 0.1 -10.7 4.5 -30.2 19.9 32.3-16.3 9.3-7.1 0.1 0.1c0.1 0.1 0.1 0.2 0.1 0.2l0.1 0.2c0.1 0.1 0.1 0.1 0.1 0.1s0.1 0.1 0.2 0.2l0.2 0.2 0.1 0.1c0 0 0.1 0.1 0.2 0.1 0 0 0.1 0.1 0.1 0.2l0.1 0.1 -9.2 7.2 -24.1 26.9 26.9-24 7.2-9.2c0.1 0 0.1 0.1 0.1 0.1 0.1 0.1 0.2 0.1 0.2 0.1l0.2 0.2 0.1 0.1 0.2 0.2 0.2 0.1 0.1 0.1c0 0 0.1 0.1 0.2 0.1l0.2 0.1 0.1 0.1 -7 9.3 -16.3 32.3 19.8-30.2 4.5-10.7 0.1 0.1c0.1 0.1 0.2 0.1 0.2 0.1l0.1 0.1 0.2 0.1 0.2 0.1c0.1 0.1 0.1 0.1 0.1 0.1l0.2 0.1 0.2 0.1c0 0 0.1 0.1 0.2 0.1l0.2 0.1 -4.4 10.8 -7.4 35.4 11.3-34.3 1.6-11.5 0.1 0.1h0.2l0.2 0.1h0.2l0.2 0.1h0.2c0.1 0.1 0.1 0.1 0.1 0.1h0.2 0.2 0.1l-1.4 11.6 2.1 36.1 2.1-36.1 -1.4-11.6c0.1 0 0.1 0 0.1 0h0.2 0.2c0 0 0.1 0 0.1-0.1h0.2l0.2-0.1c0.1 0 0.1 0 0.1 0l0.2-0.1h0.2l0.1-0.1 1.6 11.5 11.3 34.3 -7.4-35.4 -4.4-10.8 0.2-0.1c0.1-0.1 0.1-0.1 0.1-0.1l0.2-0.1 0.2-0.1 0.2-0.1 0.2-0.1 0.2-0.1 0.1-0.1c0 0 0.2-0.1 0.2-0.1l0.1-0.1 4.5 10.7 19.9 30.2 -16.3-32.3 -7-9.3 0.1-0.1 0.2-0.1 0.2-0.1c0.1-0.1 0.1-0.1 0.1-0.1l0.2-0.2 0.2-0.2c0 0 0.1-0.1 0.1-0.1l0.1-0.1c0 0 0.1-0.1 0.2-0.2l0.1-0.1 7.2 9.2 26.9 24L274 271.2l-9.2-7.2 0.1-0.1C265 263.8 265.1 263.8 265.1 263.7z"/><path class="st5" d="M256 187.5c-37.9 0-68.5 30.7-68.5 68.5s30.7 68.5 68.5 68.5 68.5-30.7 68.5-68.5S293.9 187.5 256 187.5zM314.5 267l0.4 0.1c-0.6 3.2-1.4 6.3-2.5 9.3 -1.4-0.6-3.1-0.1-3.8 1.2 -0.9 1.5-0.4 3.3 1.1 4.2 0 0 0.3 0.1 0.4 0.2 -1.4 2.9-3 5.7-4.8 8.3 -1.2-1-3-0.9-4.1 0.2 -1.1 1.1-1.1 3.1 0 4.3 0 0 0.2 0.2 0.3 0.3 -2.1 2.5-4.4 4.7-6.8 6.8 -0.9-1.2-2.6-1.6-4-0.8 -1.4 0.9-2 2.7-1.1 4.1 0.1 0.2 0.2 0.2 0.2 0.2 -2.6 2-5.3 3.6-8.3 4.9 -0.5-1.4-2.1-2.2-3.6-1.8 -1.6 0.5-2.6 2.1-2.1 3.7l0.1 0.4c-3 1-6.1 1.9-9.3 2.5 -0.2-1.6-1.4-2.7-3-2.7 -1.7 0-3 1.3-3 3l0.1 0.4c-1.6 0.1-3.1 0.2-4.7 0.2 -1.7 0-3.3-0.1-4.9-0.2 0.2-1.6-0.7-3-2.2-3.4 -1.7-0.5-3.3 0.5-3.7 2.1l-0.1 0.4c-3.2-0.6-6.3-1.4-9.3-2.5 0.6-1.4 0.1-3-1.2-3.8 -1.5-0.9-3.3-0.3-4.1 1.1 -0.1 0.1-0.2 0.3-0.2 0.3 -2.9-1.3-5.7-2.9-8.3-4.7 0.9-1.2 0.9-2.9-0.2-4.1 -1.2-1.1-3.1-1.1-4.4 0 0 0-0.2 0.2-0.2 0.3 -2.4-2.1-4.7-4.4-6.8-6.8 1.2-0.9 1.6-2.6 0.8-3.9 -0.9-1.5-2.7-2-4.1-1.1 -0.2 0.1-0.2 0.2-0.2 0.2 -2-2.5-3.5-5.3-4.9-8.3 1.4-0.5 2.2-2.1 1.8-3.6 -0.4-1.6-2.1-2.6-3.7-2.1 -0.2 0-0.3 0.1-0.5 0.1 -1-3-1.9-6.1-2.5-9.2 1.6-0.2 2.8-1.4 2.8-3 0-1.7-1.4-3-3.1-3 0 0-0.2 0-0.4 0.1 -0.1-1.6-0.2-3.1-0.2-4.7 0-1.7 0.1-3.3 0.2-4.9 1.5 0.2 3-0.7 3.4-2.2 0.4-1.7-0.6-3.3-2.2-3.7L197 245c0.6-3.2 1.4-6.3 2.5-9.2 1.4 0.6 3.1 0.1 3.8-1.3 0.9-1.4 0.3-3.3-1.1-4.1l-0.4-0.2c1.4-2.9 3-5.6 4.8-8.3 1.2 0.9 3 0.9 4.1-0.2 1.1-1.2 1.1-3.1 0-4.3 -0.1-0.1-0.2-0.2-0.2-0.2 2-2.6 4.3-4.8 6.7-6.9 0.9 1.2 2.6 1.6 4 0.8 1.4-0.8 2-2.7 1.1-4.1l-0.2-0.3c2.6-1.8 5.4-3.4 8.3-4.8 0.5 1.4 2.1 2.2 3.6 1.8 1.6-0.5 2.6-2.1 2.1-3.7 0 0-0.1-0.3-0.1-0.5 3-1 6.1-1.9 9.3-2.4 0.2 1.5 1.4 2.7 3 2.7 1.7 0 3-1.4 3-3 0-0.2 0-0.3 0-0.3 1.5-0.3 3-0.3 4.6-0.3 1.7 0 3.3 0.1 5 0.2 -0.2 1.5 0.7 2.9 2.2 3.4 1.7 0.4 3.3-0.6 3.7-2.2 0 0 0.1-0.3 0.1-0.4 3.2 0.6 6.3 1.4 9.3 2.5 -0.6 1.4-0.1 3.1 1.2 3.9 1.5 0.8 3.3 0.3 4.1-1.1l0.2-0.4c2.9 1.4 5.7 3 8.3 4.9 -1 1.1-0.9 2.9 0.2 4 1.2 1.2 3.2 1.2 4.3 0l0.3-0.3c2.4 2.1 4.7 4.4 6.8 6.8 -1.2 0.9-1.6 2.6-0.8 4 0.9 1.4 2.7 2 4.1 1.1l0.3-0.2c1.8 2.6 3.4 5.4 4.8 8.3 -1.4 0.6-2.2 2.1-1.8 3.6 0.5 1.6 2.1 2.6 3.7 2.2l0.4-0.2c1 3 1.9 6.1 2.5 9.3 -1.6 0.2-2.7 1.4-2.7 3 0 1.7 1.3 3 3 3h0.4c0.1 1.5 0.2 3 0.2 4.6 0 1.7-0.1 3.3-0.2 5 -1.6-0.2-3 0.7-3.4 2.2C311.9 264.8 312.9 266.5 314.5 267z"/></svg>